<svg id="Layer_1" data-name="Layer 1" xmlns="http://www.w3.org/2000/svg" viewBox="0 0 1083.26 1083.26"><defs><style>.cls-1{fill:#231f20;}</style></defs><path class="cls-1" d="M569.36,387.8h0l-72.13-29.52-51.5,74.39h0l34.56,134.86h0l61.77,34.8,93.3-86.89.73-.68Zm-86.82,178-31.9-124.47L539.5,597.88Zm57.82,28.29L448.82,432.81l49.36-71.31,68.32,28Zm2.09,4.34,26.33-206.09,64.08,121.89Z"/><path class="cls-1" d="M542.15,603l-.32-.18-61.6-34.71-.28.08-.09-.29-.26-.14.15-.24L445.24,432.81l-.09-.16,0-.06-.07-.28.31-.07,51.63-74.57.37.15L570,387.5l-.06.24,66.84,127.13ZM481,567.36l61,34.37,93.48-87.07L569,388.19,497.41,358.9l-51.09,73.8.17.3-.16,0,34.31,133.88.75-.2Zm60.78,32.37.17-1.38L568.49,390.7l65,123.62ZM569.08,394l-26,203.14,89.12-83ZM540.82,599.2l-58.71-33.08-.06-.21-32.82-128.1ZM483,565.46l55.21,31.1L452.06,444.82Zm57.69,30.18L448.23,432.78,498,360.89l.37.15,68.68,28.11,0,.38ZM449.41,432.83l90.64,159.7L566,389.78l-67.59-27.66Z"/><path class="cls-1" d="M395.19,663.82h4.09L412,718l11.9-54.18h4l-14,61.38H410Z"/><path class="cls-1" d="M465.67,663.82h21.22v3.33H469.83v24.63h14V695h-14v27h17.28v3.26H465.67Z"/><path class="cls-1" d="M525.84,663.82h14.85q7.57,0,10.54,4T554.18,679a22,22,0,0,1-1.93,9.86c-1.29,2.57-3.65,4.14-7.09,4.69L555,725.2h-4.1l-9.55-30.92H529.93V725.2h-4.09Zm14.7,27.28c3.69,0,6.21-1,7.58-3s2-5,2-9.14-.7-7.16-2.09-9.05-3.93-2.84-7.62-2.84H529.93v24Z"/><path class="cls-1" d="M590.79,663.82h4.09L607.61,718l11.9-54.18h4l-14,61.38h-3.86Z"/><path class="cls-1" d="M661.27,663.82h21.22v3.33H665.43v24.63h14V695h-14v27h17.28v3.26H661.27Z"/><path class="cls-1" d="M697,639.09H384.87V327H697Zm-308.1-4H693V331H388.87Z"/></svg>